<?xml version="1.0" encoding="UTF-8" standalone="no"?>
<svg
   xmlns:osb="http://www.openswatchbook.org/uri/2009/osb"
   xmlns:dc="http://purl.org/dc/elements/1.1/"
   xmlns:cc="http://creativecommons.org/ns#"
   xmlns:rdf="http://www.w3.org/1999/02/22-rdf-syntax-ns#"
   xmlns:svg="http://www.w3.org/2000/svg"
   xmlns="http://www.w3.org/2000/svg"
   id="svg6"
   version="1.1"
   viewBox="0 0 32 32">
  <metadata
     id="metadata12">
    <rdf:RDF>
      <cc:Work
         rdf:about="">
        <dc:format>image/svg+xml</dc:format>
        <dc:type
           rdf:resource="http://purl.org/dc/dcmitype/StillImage" />
        <dc:title></dc:title>
      </cc:Work>
    </rdf:RDF>
  </metadata>
  <defs
     id="defs10">
    <linearGradient
       id="linearGradient831"
       osb:paint="solid">
      <stop
         style="stop-color:#90a4ae;stop-opacity:1;"
         offset="0"
         id="stop829" />
    </linearGradient>
  </defs>
  <path
     style="stroke-width:0.01795246"
     d="m 10.925791,25.99594 c -0.02468,-0.0043 -0.105471,-0.0167 -0.179524,-0.02752 -0.447658,-0.06542 -0.9651752,-0.34248 -1.2906382,-0.690983 -0.297641,-0.31871 -0.492,-0.695794 -0.587216,-1.139285 -0.04556,-0.212194 -0.04631,-0.668372 -0.0014,-0.877104 0.03116,-0.144946 0.09059,-0.341879 0.139708,-0.462908 l 0.02327,-0.05735 -0.224767,-0.230527 c -0.737481,-0.756382 -1.15784,-1.5545 -1.27527,-2.421296 -0.03489,-0.257498 -0.0349,-3.50781 -1.7e-5,-3.768168 0.207238,-1.546811 1.440515,-2.941344 3.5395112,-4.002313 1.388797,-0.701989 3.214003,-1.231628 5.134406,-1.489908 2.169672,-0.291804 4.58566,-0.259235 6.69627,0.09027 1.712243,0.283539 3.270581,0.766601 4.540218,1.407406 2.101808,1.060811 3.327937,2.451306 3.527767,4.00068 0.04258,0.330103 0.04258,3.427644 0,3.757748 -0.08283,0.642205 -0.334031,1.241177 -0.766773,1.82831 -0.174029,0.236119 -0.273549,0.35155 -0.52155,0.60494 l -0.214304,0.21896 0.03674,0.08623 c 0.194441,0.45631 0.220294,1.054318 0.06738,1.558334 -0.161574,0.532519 -0.5569,1.024242 -1.060401,1.318962 -0.174648,0.102225 -0.450363,0.206366 -0.672144,0.253861 -0.24367,0.05218 -0.68475,0.05631 -0.906598,0.0084 -0.586068,-0.126366 -1.109167,-0.458887 -1.419596,-0.902392 -0.04711,-0.06731 -0.09104,-0.128758 -0.09763,-0.136558 -0.0066,-0.0078 -0.168778,0.03012 -0.360428,0.08426 -1.691571,0.477917 -3.355693,0.721264 -5.213572,0.76239 -2.358022,0.0522 -4.510471,-0.207127 -6.468021,-0.779261 -0.152899,-0.04469 -0.27929,-0.07898 -0.280868,-0.0762 -0.111674,0.19638 -0.428139,0.528758 -0.642861,0.675176 -0.26471,0.180507 -0.580408,0.313526 -0.88286,0.371994 -0.142677,0.02758 -0.550846,0.04917 -0.638789,0.03379 z m 9.712284,-5.27577 c 2.241854,-0.15567 4.213968,-0.629187 5.723122,-1.37416 0.617811,-0.304975 0.971738,-0.524144 1.395031,-0.863874 1.097522,-0.880862 1.52104,-1.922147 1.19981,-2.949918 -0.270596,-0.865769 -1.128518,-1.706877 -2.420578,-2.37314 -2.273415,-1.172309 -5.612635,-1.71329 -8.958281,-1.451316 -1.742403,0.136435 -3.380226,0.494288 -4.757402,1.039456 -0.597581,0.236557 -1.326622,0.622178 -1.756458,0.929063 -0.911218,0.650571 -1.4209372,1.326097 -1.5864552,2.102504 -0.03938,0.184759 -0.04337,0.629038 -0.0072,0.811301 0.151177,0.763197 0.6730492,1.458786 1.5835152,2.110628 0.301743,0.21603 0.656641,0.420607 1.13033,0.651564 0.511554,0.249419 0.789754,0.360783 1.444186,0.578108 1.404886,0.466542 3.056075,0.747212 4.838189,0.8224 0.36203,0.01527 1.791705,-0.0062 2.172248,-0.03262 z m -1.893986,-3.289759 c -1.297005,-0.08592 -2.429451,-0.495137 -2.964878,-1.0714 -0.213619,-0.229912 -0.310533,-0.434165 -0.325118,-0.685226 -0.01078,-0.184962 0.01723,-0.316569 0.104012,-0.489272 0.531591,-1.057884 2.850743,-1.655752 4.990206,-1.286456 0.925433,0.15974 1.695126,0.496837 2.127368,0.931705 0.264369,0.265977 0.371838,0.494071 0.372639,0.790891 3.23e-4,0.120649 -0.0096,0.191127 -0.03936,0.278264 -0.30872,0.9053 -1.918749,1.557179 -3.805204,1.540676 -0.203449,-0.0018 -0.4103,-0.0059 -0.459671,-0.0092 z M 4.8129768,24.701792 c -0.06912,-0.01475 -0.177886,-0.04765 -0.241708,-0.07312 -0.111112,-0.04433 -3.0069389,-1.791378 -3.1822171,-1.919823 -0.1207152,-0.08846 -0.2221751,-0.210078 -0.284895,-0.341495 -0.11401177,-0.23889 -0.10693387,0.167457 -0.1017918,-5.8444 l 0.00469,-5.480179 0.041625,-0.134644 c 0.022893,-0.07405 0.07937,-0.207351 0.1255024,-0.296216 0.067479,-0.12998 0.1175902,-0.195356 0.2563234,-0.334374 C 1.5719108,10.135845 1.630108,10.091404 1.7538148,10.030656 1.9749027,9.9220833 13.45681,6.0731764 13.717401,6.0202784 c 0.275485,-0.05592 0.890175,-0.0558 1.175887,2.22e-4 0.349392,0.06852 2.979098,0.790152 3.115986,0.855081 0.238669,0.113212 0.444068,0.355868 0.510938,0.603629 0.01615,0.05984 0.02096,0.362151 0.01853,1.1665009 -0.0018,0.597144 -0.0049,1.087101 -0.0067,1.088793 -0.0042,0.0038 -0.974937,0.06096 -1.031178,0.06074 l -0.0404,-1.6e-4 v -0.673218 c 0,-0.370269 -0.006,-0.672971 -0.01346,-0.672672 -0.0074,3e-4 -2.679406,0.884176 -5.937779,1.9641687 l -5.9243144,1.963623 -0.0045,5.515136 c -0.0043,5.246977 -0.003,5.514718 0.02693,5.50658 0.01729,-0.0047 0.451533,-0.172284 0.964974,-0.3724 0.51344,-0.200116 0.946497,-0.3675 0.962348,-0.371964 0.0203,-0.0057 0.05942,0.03789 0.132353,0.147481 0.140462,0.211104 0.292741,0.400247 0.471883,0.586115 0.0824,0.08548 0.143312,0.159363 0.135376,0.164169 -0.0079,0.0049 -0.624573,0.259373 -1.370305,0.565704 -1.461193,0.600225 -1.505302,0.615144 -1.810228,0.612267 -0.08531,-8.08e-4 -0.211651,-0.01352 -0.280769,-0.02828 z"
     id="path826" />
</svg>
