<?xml version="1.0" encoding="UTF-8" standalone="no"?>
<svg
   xmlns:osb="http://www.openswatchbook.org/uri/2009/osb"
   xmlns:dc="http://purl.org/dc/elements/1.1/"
   xmlns:cc="http://creativecommons.org/ns#"
   xmlns:rdf="http://www.w3.org/1999/02/22-rdf-syntax-ns#"
   xmlns:svg="http://www.w3.org/2000/svg"
   xmlns="http://www.w3.org/2000/svg"
   id="svg6"
   version="1.1"
   viewBox="0 0 32 32">
  <metadata
     id="metadata12">
    <rdf:RDF>
      <cc:Work
         rdf:about="">
        <dc:format>image/svg+xml</dc:format>
        <dc:type
           rdf:resource="http://purl.org/dc/dcmitype/StillImage" />
        <dc:title></dc:title>
      </cc:Work>
    </rdf:RDF>
  </metadata>
  <defs
     id="defs10">
    <linearGradient
       id="linearGradient831"
       osb:paint="solid">
      <stop
         style="stop-color:#90a4ae;stop-opacity:1;"
         offset="0"
         id="stop829" />
    </linearGradient>
  </defs>
  <path
     id="path826"
     d="m 3.3391469,20.723261 c -1.041363,-1.1133 -1.492696,-2.25075 -1.492696,-3.7619 v -0.95182 l 0.234506,-0.13123 c 0.128978,-0.0722 0.434864,-0.10183 0.679746,-0.0659 l 0.44524,0.0653 0.01149,1.00247 c 0.0063,0.55136 0.09185,1.22405 0.190077,1.49488 0.257921,0.71115 1.246418,1.80951 1.96946,2.18835 0.6056952,0.413529 1.0225723,0.596985 1.7952658,0.661578 0.8133825,-5.36e-4 1.2450922,-0.324888 1.2450922,-0.324888 l 0.74854,-0.42049 0.74854,-0.42049 0.4355311,0.46601 0.435531,0.46602 -0.17057,0.20552 c -0.217303,0.260388 -1.6253702,0.870738 -2.1975721,1.07045 -0.9664083,0.280542 -1.8014753,0.33077 -2.5669002,0.09474 -1.1141615,-0.195752 -1.9071879,-0.991163 -2.5112808,-1.6386 z m 20.1041691,1.531962 c -0.565153,-0.30005 -1.040017,-0.85973 -1.087269,-1.28146 l -0.04169,-0.37208 1.925947,-0.0422 1.925947,-0.0422 v 0.32107 c 0,0.48538 -0.564203,1.17773 -1.163944,1.42832 -0.635819,0.26566 -1.042899,0.26271 -1.558991,-0.0113 z m -13.4642791,-3.1879 c -0.69278,-0.80236 -1.547888,-1.80499 -1.90024,-2.22806 -0.703962,-0.84525 -1.238781,-1.13989 -2.380452,-1.31142 -2.218286,-0.33329 -2.787221,-0.42883 -3.503427,-0.58837 l -0.784442,-0.17474 -0.246314,-0.74158 c -0.136945,-0.4123 -0.20045104,-0.88608 -0.143025,-1.06702 0.209563,-0.66027 1.782907,-2.88858 2.240736,-3.1735203 l 0.472761,-0.29424 1.13291,0.0745 c 1.52446,0.10028 3.80075,0.3354 4.909277,0.5070803 1.1479211,0.17777 1.7052651,0.40334 2.2274171,0.90147 l 0.41476,0.39567 0.944732,0.12913 c 2.582151,0.35295 4.540451,0.6625 5.452768,0.86191 0.345302,0.0755 1.035669,0.21632 1.534149,0.31299 3.042903,0.5901 6.893025,1.6498 7.628261,2.09958 1.314021,0.80385 3.00412,2.77126 2.811611,3.27293 l -0.08315,0.21668 h -4.92135 -4.92135 l -1.162676,1.1329 -1.162673,1.13292 H 14.888975 11.23863 Z m 9.9939741,1.31303 c 0,-0.20078 0.884781,-1.19152 1.228251,-1.37535 0.315492,-0.16884 9.020059,-0.36723 9.495268,-0.21641 L 31,18.884891 v 0.58168 c 0,0.31993 -0.04126,0.68921 -0.09169,0.82062 l -0.09169,0.23894 h -2.163951 -2.163952 l -0.103069,-0.33987 c -0.05669,-0.18693 -0.243053,-0.49282 -0.414147,-0.67975 l -0.311079,-0.33987 h -1.460804 -1.460803 l -0.23948,0.26462 c -0.131714,0.14555 -0.310504,0.45143 -0.39731,0.67975 l -0.15783,0.41512 h -0.985593 c -0.542077,0 -0.985594,-0.0656 -0.985594,-0.1458 z M 5.9249269,19.454061 c -0.990835,-0.59164 -1.554416,-1.57009 -1.482265,-2.57339 l 0.04724,-0.65697 0.283115,-0.0538 c 0.155713,-0.0296 0.687779,0.036 1.182368,0.14575 l 0.899253,0.19949 1.006587,1.13692 c 0.553622,0.62531 1.059775,1.17592 1.124785,1.22357 0.06501,0.0477 -0.0025,0.19587 -0.149993,0.32936 -0.699435,0.63298 -2.071518,0.75035 -2.911096,0.24903 z"
     style="stroke-width:0.15105468" />
</svg>
