<svg xmlns="http://www.w3.org/2000/svg" viewBox="0 0 32 32"><path d="M4.486.6c-.376.179-.59.405-.711.759-.057.166-.061.278-.061 1.659v1.477h11.598H26.91V3.81c0-.533-.009-.686-.041-.686-.022 0-.067-.048-.099-.108-.08-.147-.322-.38-.504-.479-.329-.182-.507-.217-1.621-.309l-.718-.061-.702-.064-.718-.064-1.468-.128-.734-.064-.734-.064-2.138-.191-.734-.064-2.154-.191-.75-.067-.734-.061-1.436-.128-1.436-.128-.734-.064-.734-.064L7.32.699 6.538.632 5.82.572 5.102.524C4.691.508 4.684.508 4.486.6z" fill="#00f"/><path d="M2.342 7.256l.035 1.586A1.39 1.39 0 0 0 3.529 9.92c.112.016.562.032 1.002.032.715 0 .826.006 1.011.064A1.78 1.78 0 0 1 6.643 11.1c.022.061.849 4.432 1.841 9.715l1.866 9.805c.169.53.635.96 1.2 1.107.163.041.759.048 4.521.048h4.336l-.255-.265a6.4 6.4 0 0 1-1.774-3.624c-.067-.466-.067-1.33 0-1.793.447-3.219 3.222-5.641 6.467-5.644 1.037 0 1.965.223 2.926.708l.504.249c.003 0 .006-3.503.006-7.785V5.836h-12.97-12.97v1.42zm21.68 15.04c-1.713.303-3.152 1.557-3.698 3.226a4.79 4.79 0 0 0 .262 3.589c.667 1.334 1.863 2.259 3.334 2.575.271.057.428.07.948.07.692 0 1.015-.051 1.554-.239 2.074-.727 3.395-2.75 3.203-4.91a4.66 4.66 0 0 0-1.391-2.983 4.65 4.65 0 0 0-2.6-1.34c-.415-.064-1.196-.061-1.611.013zm1.353 2.603a2.18 2.18 0 0 1 1.63 2.355c-.134 1.072-1.066 1.905-2.138 1.905-1.066 0-2.004-.833-2.138-1.895a2.18 2.18 0 0 1 1.627-2.364 3.03 3.03 0 0 1 1.018 0z"/></svg>